# xmcd
#
# Track frame offsets: 
#        150
#        34715
#        55720
#        86832
#        121667
#        142540
#        162885
#        193857
#        215917
#        235055
#
# Disc length: 3338 seconds
#
# Revision: 1
# Processed by: cddbd v1.5.2PL0 Copyright (c) Steve Scherf et al.
# Submitted via: ExactAudioCopy v1.0b3
#
DISCID=800d080a
DTITLE=Khanh Ha, VA - Nhac Tien Chien 1
DYEAR=1993
DGENRE=Blues
TTITLE0=Khanh Ha - Goi giac mo xua
TTITLE1=Khanh Ly, Le Thu - Tieng thu
TTITLE2=Tuan Ngoc - Tien em
TTITLE3=Khanh Ha - La thu
TTITLE4=Tuan Ngoc - Chuyen ben
TTITLE5=Khanh Ha - Thuyen vien xu
TTITLE6=Khanh Ha - Giot mua thu
TTITLE7=Tuan Ngoc - La do muon chieu
TTITLE8=Khanh Ha - Mo hoa
TTITLE9=Tuan Ngoc - Tro ve ben mo
EXTD=
EXTT0=
EXTT1=
EXTT2=
EXTT3=
EXTT4=
EXTT5=
EXTT6=
EXTT7=
EXTT8=
EXTT9=
PLAYORDER=
